<?xml version="1.0" encoding="utf-8"?><svg version="1.1" id="Layer_1" xmlns="http://www.w3.org/2000/svg" xmlns:xlink="http://www.w3.org/1999/xlink" x="0px" y="0px" viewBox="0 0 100.77 122.88" style="enable-background:new 0 0 100.77 122.88" xml:space="preserve"><style type="text/css">.st0{fill-rule:evenodd;clip-rule:evenodd;}</style><g><path class="st0" d="M32.19,27.99c4.78,0.59,9.92-0.52,15.46-3.5c-0.55,4.13-0.59,8.62-0.09,13.5c-2.69-0.22-5.38-0.77-8.07-1.59 C7.46,26.34-10.26,63.17,6.34,92.35c4.97,8.73,10.99,17.72,20.33,25.89c8.88,6.36,16.7,5.49,23.93,1.55 c5.75,2.73,11.83,3.81,18.36,1.36c9.61-3.61,19.39-17.86,24-26.67c10.07-19.26,13.49-43.97-8.97-56.01 c-6.13-3.29-13.79-4.25-23.5-2.07c-2.31,0.79-4.61,1.29-6.92,1.53c0-0.05-0.01-0.1-0.01-0.14c-0.81-7.45-0.24-13.82,1.54-19.23 c1.74-5.3,4.67-9.72,8.62-13.37c1.22-1.12,1.29-3.01,0.18-4.23c-1.12-1.22-3.01-1.29-4.23-0.18c-4.7,4.34-8.18,9.6-10.26,15.92 c-0.27,0.82-0.52,1.66-0.74,2.52c-6-10.65-16.17-16.16-32.91-13.6L9.19,6.31C14,16.3,19.93,26.49,32.19,27.99L32.19,27.99z M16.03,80.8c1.19-0.4,2.48,0.24,2.88,1.43c1.28,3.84,3.2,7.29,5.59,10.43c2.43,3.18,5.35,6.06,8.62,8.72 c0.97,0.79,1.12,2.22,0.33,3.2c-0.79,0.97-2.22,1.12-3.2,0.33c-3.54-2.88-6.71-6.01-9.36-9.49c-2.69-3.52-4.84-7.4-6.29-11.74 C14.2,82.49,14.84,81.2,16.03,80.8L16.03,80.8z"/></g></svg>